<?xml version="1.0" encoding="UTF-8"?>
<!DOCTYPE svg  PUBLIC '-//W3C//DTD SVG 1.1//EN'  'http://www.w3.org/Graphics/SVG/1.1/DTD/svg11.dtd'>
<svg enable-background="new 0 0 976.1 243.2" version="1.1" viewBox="0 0 976.1 243.2" xml:space="preserve" xmlns="http://www.w3.org/2000/svg" xmlns:xlink="http://www.w3.org/1999/xlink">
	<defs>
		<path id="c" d="m912.5 66.7h44.9c3.9 0 6 4.6 3.4 7.5l-61.2 69.4c2.8 6.2 5.6 12.4 8.5 18.6l25.5 55.8c2.7 5.8 1 8.5-5.3 8.5h-43.5c-6.7 0-7.8-0.7-10.3-7-7.2-18.7-14.4-37.4-21.6-56-0.5-1.4-1.1-2.7-2-4.7-3.2 18.1-6.2 35.4-9.2 52.7-0.5 2.9-1 5.9-1.6 8.8-0.8 3.9-3.7 6.2-7.7 6.2h-39c-4.7 0-6.8-2.5-6-7.2 5.5-31.6 11.1-63.2 16.7-94.8 5.8-33.3 11.7-66.6 17.4-99.8 0.1-0.7 0.2-1.3 0.4-2 1.1-5 5.5-8.5 10.6-8.5h37.2c3.4 0 6.1 2.9 5.8 6.2 0 0.5-0.1 1-0.2 1.5l-19.9 109.7 50.6-61.8c1.5-2 3.9-3.1 6.5-3.1zm-163.8 159.7c5.5 0 8-2.2 9-7.4 4.2-23.6 8.5-47.1 12.5-70.7 2.1-12.2 5-24.2 4.8-36.7-0.5-22.7-13.1-39-35.3-44.1-21-4.9-42.2-4.1-63.2 0.3-11.9 2.5-22.1 8.3-29.9 17.9-7.5 9.4-11.9 20.2-14.1 31.8-4.3 22.2-8.1 44.4-12 66.6-2.1 11.7-4.2 23.3-6 35-0.9 5.5 0.9 7.3 6.5 7.3h37.9c4.5 0 7.4-2.3 8.2-6.6 4.5-25.7 9-51.3 13.5-77 1.4-8.1 2.8-16.2 4.6-24.2 1.4-6.2 5.2-10.7 11.9-11.2 5.7-0.4 11.5-0.4 17.2-0.1 5.8 0.4 8.3 3.5 8.3 9.4 0 1.4 0 2.8-0.2 4.1-3.1 17.6-6.2 35.1-9.3 52.7-2.7 15.4-5.4 30.7-8 46.1-0.8 4.7 1.2 6.8 5.9 6.8h37.7zm-177-212.2c-2.2 0-4.3 0.7-5.9 2.3-0.9 0.8-1.5 1.8-1.8 3.2-1.4 8.5-3.1 16.9-4.4 25.4-0.7 4.5 1.2 6.5 5.8 6.5 14 0.1 28 0.1 42 0 4.4 0 7-2.2 7.8-6.5 1.5-8.1 2.9-16.2 4.4-24.3v-0.1c0.6-3.5-2.2-6.6-5.7-6.6l-42.2 0.1zm1.4 212.2c6.7 0 9.3-2.1 10.4-8.6 8.5-48 16.9-96 25.4-144 0.8-4.4-1.3-7-5.8-7.1-13-0.1-26-0.1-39 0-4.5 0-7.4 2.7-8.2 7.1-0.2 1.3-0.5 2.7-0.7 4-5.4 30.4-10.8 60.9-16.1 91.3-2.9 16.7-5.9 33.4-8.7 50.1-0.8 4.9 1.2 7.1 6.1 7.1h19.1c5.8 0.1 11.6 0.1 17.5 0.1zm-84.4-212.2c-2.7 0-5.4 1.2-6.9 3.5-1 1.5-1.6 3.3-1.9 5.4-1.2 8.5-2.9 16.9-4.4 25.4-10 56.8-20.1 113.6-30.1 170.5-0.9 4.9 1.2 7.4 6.1 7.4h38.2c5 0 7.6-2.1 8.5-7 2.3-12.5 4.5-25 6.7-37.5 5.6-31.8 11.2-63.6 16.9-95.4 3.8-21.6 7.7-43.2 11.5-64.8 0.5-2.6 0.3-4.9-1.6-6.5-0.9-0.7-2.1-1.1-3.3-1.1l-39.7 0.1zm-86.5 0c-2.2 0-4.3 0.7-5.9 2.3-0.9 0.8-1.5 1.8-1.8 3.2-1.4 8.5-3.1 16.9-4.4 25.4-0.7 4.5 1.2 6.5 5.8 6.5 14 0.1 28 0.1 42 0 4.4 0 7-2.3 7.8-6.5 1.5-8.1 2.9-16.2 4.4-24.3v-0.1c0.6-3.5-2.2-6.6-5.7-6.6l-42.2 0.1zm1.5 212.2c6.6 0 9.2-2.2 10.4-8.7 8.5-48 16.9-96 25.4-144 0.7-4.2-1.3-7-5.5-7-13.1-0.1-26.2-0.1-39.4 0-4.5 0-7.4 2.7-8.2 7.2-0.2 1.3-0.5 2.7-0.7 4-5.4 30.4-10.8 60.9-16.2 91.3-2.9 16.6-5.8 33.1-8.7 49.7-0.9 5.3 1.1 7.4 6.5 7.4h18.7c5.9 0.1 11.8 0.1 17.7 0.1zm-87.8-120.5h34.3c4.9 0 7.4-2.1 8.3-6.9 1.3-7.1 2.6-14.2 3.8-21.4 1.8-10.4 1.3-11-9.2-11h-30.6c1.8-9.9 3.5-19.5 5.2-29.1 1.1-6.2-1.2-8.6-7.2-7.6-12.9 2.2-25.8 4.4-38.7 6.6-5.7 1-7.6 3-8.6 8.6-2.4 13.6-4.8 27.2-7.2 40.9-5.8 33-12.1 66-17.1 99.1-3 19.8 4.4 36.1 26.9 41.3 18.3 4.3 36.7 2.2 55-0.9 3.6-0.6 5.5-3.1 6.1-6.7 1.2-7 2.4-14 3.7-21 1.1-6.4-0.3-8.2-6.9-8.2-8.4-0.1-25.1-0.1-25.1-0.1s-2.8 0.3-5-2.2c-1.3-1.5-0.4-4.7-0.4-4.7l12.7-76.7zm-116.2-91.7c-2.2 0-4.3 0.7-5.9 2.3-0.9 0.8-1.5 1.8-1.8 3.2-1.4 8.5-3.1 16.9-4.4 25.4-0.7 4.5 1.2 6.5 5.8 6.5 14 0.1 28 0.1 42 0 4.4 0 7-2.3 7.8-6.5 1.5-8.1 2.9-16.2 4.4-24.3v-0.1c0.6-3.5-2.2-6.6-5.7-6.6h-42.2zm1.6 212.2c6.6 0 9.2-2.2 10.3-8.8 8.4-47.9 16.9-95.8 25.3-143.6 0.8-4.7-1.2-7.3-5.9-7.3h-38.6c-4.7 0-7.6 2.6-8.5 7.3-5.5 30.7-10.9 61.4-16.3 92.1-3.1 17.7-6.2 35.4-9.2 53.1-0.9 5.1 1.1 7.3 6.2 7.3h18.7c6-0.1 12-0.1 18-0.1zm-48.9-203.2c-16.7-3.9-33.7-4.1-50.6-2.1-14.3 1.7-27.8 5.8-39.8 14.1-16.9 11.7-26.7 28.3-33.3 47.2-5.7 16.3-8 33.4-11.3 50.3-2.7 13.8-4.3 27.6-2.2 41.6 2.4 16.1 9.3 29.6 22.2 39.8 11.8 9.3 25.6 13.4 40.2 14.4 15.5 1 30.9-0.3 46-4.3 4.9-1.3 7.6-3.7 8.4-9 1.5-10.1 3.6-20.1 5.4-30.2 1.1-6.3-0.2-7.7-6.5-7.4-0.7 0-1.5 0.1-2.2 0.2-11.9 1.3-23.9 2.3-35.9 2-13.7-0.2-20.8-7.4-21.4-21.1-0.5-11.2 1.8-22.1 3.9-33 2.3-12 3.8-24.2 8.4-35.6 6.3-15.5 15.2-21.4 31.9-21.3 11.8 0.1 23.4 1.4 35.1 2.3 5.3 0.4 6.8-0.9 7.8-6.3 1.2-6.5 3.4-18.7 4.4-25.3 0.8-5.8 1.5-8.6 0.1-11.8-1.5-2.9-6.4-3.5-10.6-4.5z"/>
	</defs>
	<clipPath id="d">
		<use overflow="visible" xlink:href="#c"/>
	</clipPath>
	<g clip-path="url(#d)">
		<rect x="-16.2" y="-53.7" width="1047" height="311.8" fill="#0C803D"/>
		<polygon points="762.3 258.1 913.1 -53.7 813.6 -53.7" fill="#54B149"/>
		<polygon points="768.3 258.1 880.3 123.3 850.8 258.1" fill="#CDD745"/>
	</g>
</svg>
